<svg xmlns="http://www.w3.org/2000/svg" xmlns:xlink="http://www.w3.org/1999/xlink"><symbol id="inline-angle-arrow-down" viewBox="0 0 284.929 284.929">
<g>
	<path fill="currentColor" d="M282.082,76.511l-14.274-14.273c-1.902-1.906-4.093-2.856-6.57-2.856c-2.471,0-4.661,0.95-6.563,2.856L142.466,174.441
		L30.262,62.241c-1.903-1.906-4.093-2.856-6.567-2.856c-2.475,0-4.665,0.95-6.567,2.856L2.856,76.515C0.95,78.417,0,80.607,0,83.082
		c0,2.473,0.953,4.663,2.856,6.565l133.043,133.046c1.902,1.903,4.093,2.854,6.567,2.854s4.661-0.951,6.562-2.854L282.082,89.647
		c1.902-1.903,2.847-4.093,2.847-6.565C284.929,80.607,283.984,78.417,282.082,76.511z"/>
</g>
<g>
</g>
<g>
</g>
<g>
</g>
<g>
</g>
<g>
</g>
<g>
</g>
<g>
</g>
<g>
</g>
<g>
</g>
<g>
</g>
<g>
</g>
<g>
</g>
<g>
</g>
<g>
</g>
<g>
</g>
</symbol><symbol id="inline-facebook-f-brands" viewBox="0 0 264 512"><path fill="currentColor" d="M76.7 512V283H0v-91h76.7v-71.7C76.7 42.4 124.3 0 193.8 0c33.3 0 61.9 2.5 70.2 3.6V85h-48.2c-37.8 0-45.1 18-45.1 44.3V192H256l-11.7 91h-73.6v229"/></symbol><symbol id="inline-instagram-brands" viewBox="0 0 448 512"><path fill="currentColor" d="M224.1 141c-63.6 0-114.9 51.3-114.9 114.9s51.3 114.9 114.9 114.9S339 319.5 339 255.9 287.7 141 224.1 141zm0 189.6c-41.1 0-74.7-33.5-74.7-74.7s33.5-74.7 74.7-74.7 74.7 33.5 74.7 74.7-33.6 74.7-74.7 74.7zm146.4-194.3c0 14.9-12 26.8-26.8 26.8-14.9 0-26.8-12-26.8-26.8s12-26.8 26.8-26.8 26.8 12 26.8 26.8zm76.1 27.2c-1.7-35.9-9.9-67.7-36.2-93.9-26.2-26.2-58-34.4-93.9-36.2-37-2.1-147.9-2.1-184.9 0-35.8 1.7-67.6 9.9-93.9 36.1s-34.4 58-36.2 93.9c-2.1 37-2.1 147.9 0 184.9 1.7 35.9 9.9 67.7 36.2 93.9s58 34.4 93.9 36.2c37 2.1 147.9 2.1 184.9 0 35.9-1.7 67.7-9.9 93.9-36.2 26.2-26.2 34.4-58 36.2-93.9 2.1-37 2.1-147.8 0-184.8zM398.8 388c-7.8 19.6-22.9 34.7-42.6 42.6-29.5 11.7-99.5 9-132.1 9s-102.7 2.6-132.1-9c-19.6-7.8-34.7-22.9-42.6-42.6-11.7-29.5-9-99.5-9-132.1s-2.6-102.7 9-132.1c7.8-19.6 22.9-34.7 42.6-42.6 29.5-11.7 99.5-9 132.1-9s102.7-2.6 132.1 9c19.6 7.8 34.7 22.9 42.6 42.6 11.7 29.5 9 99.5 9 132.1s2.7 102.7-9 132.1z"/></symbol><symbol id="inline-medium-brands" viewBox="0 0 448 512"><path fill="currentColor" d="M0 32v448h448V32H0zm372.2 106.1l-24 23c-2.1 1.6-3.1 4.2-2.7 6.7v169.3c-.4 2.6.6 5.2 2.7 6.7l23.5 23v5.1h-118V367l24.3-23.6c2.4-2.4 2.4-3.1 2.4-6.7V199.8l-67.6 171.6h-9.1L125 199.8v115c-.7 4.8 1 9.7 4.4 13.2l31.6 38.3v5.1H71.2v-5.1l31.6-38.3c3.4-3.5 4.9-8.4 4.1-13.2v-133c.4-3.7-1-7.3-3.8-9.8L75 138.1V133h87.3l67.4 148L289 133.1h83.2v5z"/></symbol><symbol id="inline-snapchat-ghost-brands" viewBox="0 0 512 512"><path fill="currentColor" d="M510.846 392.673c-5.211 12.157-27.239 21.089-67.36 27.318-2.064 2.786-3.775 14.686-6.507 23.956-1.625 5.566-5.623 8.869-12.128 8.869l-.297-.005c-9.395 0-19.203-4.323-38.852-4.323-26.521 0-35.662 6.043-56.254 20.588-21.832 15.438-42.771 28.764-74.027 27.399-31.646 2.334-58.025-16.908-72.871-27.404-20.714-14.643-29.828-20.582-56.241-20.582-18.864 0-30.736 4.72-38.852 4.72-8.073 0-11.213-4.922-12.422-9.04-2.703-9.189-4.404-21.263-6.523-24.13-20.679-3.209-67.31-11.344-68.498-32.15a10.627 10.627 0 0 1 8.877-11.069c69.583-11.455 100.924-82.901 102.227-85.934.074-.176.155-.344.237-.515 3.713-7.537 4.544-13.849 2.463-18.753-5.05-11.896-26.872-16.164-36.053-19.796-23.715-9.366-27.015-20.128-25.612-27.504 2.437-12.836 21.725-20.735 33.002-15.453 8.919 4.181 16.843 6.297 23.547 6.297 5.022 0 8.212-1.204 9.96-2.171-2.043-35.936-7.101-87.29 5.687-115.969C158.122 21.304 229.705 15.42 250.826 15.42c.944 0 9.141-.089 10.11-.089 52.148 0 102.254 26.78 126.723 81.643 12.777 28.65 7.749 79.792 5.695 116.009 1.582.872 4.357 1.942 8.599 2.139 6.397-.286 13.815-2.389 22.069-6.257 6.085-2.846 14.406-2.461 20.48.058l.029.01c9.476 3.385 15.439 10.215 15.589 17.87.184 9.747-8.522 18.165-25.878 25.018-2.118.835-4.694 1.655-7.434 2.525-9.797 3.106-24.6 7.805-28.616 17.271-2.079 4.904-1.256 11.211 2.46 18.748.087.168.166.342.239.515 1.301 3.03 32.615 74.46 102.23 85.934 6.427 1.058 11.163 7.877 7.725 15.859z"/></symbol><symbol id="inline-twitter-brands" viewBox="0 0 512 512"><path fill="currentColor" d="M459.37 151.716c.325 4.548.325 9.097.325 13.645 0 138.72-105.583 298.558-298.558 298.558-59.452 0-114.68-17.219-161.137-47.106 8.447.974 16.568 1.299 25.34 1.299 49.055 0 94.213-16.568 130.274-44.832-46.132-.975-84.792-31.188-98.112-72.772 6.498.974 12.995 1.624 19.818 1.624 9.421 0 18.843-1.3 27.614-3.573-48.081-9.747-84.143-51.98-84.143-102.985v-1.299c13.969 7.797 30.214 12.67 47.431 13.319-28.264-18.843-46.781-51.005-46.781-87.391 0-19.492 5.197-37.36 14.294-52.954 51.655 63.675 129.3 105.258 216.365 109.807-1.624-7.797-2.599-15.918-2.599-24.04 0-57.828 46.782-104.934 104.934-104.934 30.213 0 57.502 12.67 76.67 33.137 23.715-4.548 46.456-13.32 66.599-25.34-7.798 24.366-24.366 44.833-46.132 57.827 21.117-2.273 41.584-8.122 60.426-16.243-14.292 20.791-32.161 39.308-52.628 54.253z"/></symbol></svg>